<svg width="1331" height="658" viewBox="0 0 1331 658" fill="none" xmlns="http://www.w3.org/2000/svg">
<path d="M113.5 171C113.5 166.858 116.858 163.5 121 163.5H506C510.142 163.5 513.5 166.858 513.5 171V474.526C513.5 478.668 510.142 482.026 506 482.026H121C116.858 482.026 113.5 478.668 113.5 474.526V171Z" stroke="#BB86FC" stroke-width="5"/>
<path d="M262.766 542.5L268.838 482.5H357.017L367.047 542.5H262.766Z" stroke="#BB86FC" stroke-width="5"/>
<path d="M227.697 543.987C227.697 543.159 228.368 542.487 229.197 542.487H400.459C401.287 542.487 401.959 543.159 401.959 543.987V569C401.959 569.828 401.287 570.5 400.459 570.5H229.197C228.368 570.5 227.697 569.828 227.697 569V543.987Z" stroke="#BB86FC" stroke-width="5"/>
<path d="M128.107 180.846C128.107 180.018 128.778 179.346 129.607 179.346H497.393C498.222 179.346 498.893 180.018 498.893 180.846V440.91C498.893 441.739 498.222 442.41 497.393 442.41H129.607C128.778 442.41 128.107 441.739 128.107 440.91V180.846Z" stroke="#BB86FC" stroke-width="5"/>
<path d="M158 206C158 205.448 158.448 205 159 205H168C168.552 205 169 205.448 169 206C169 206.552 168.552 207 168 207H159C158.448 207 158 206.552 158 206Z" fill="#BB86FC" stroke="#BB86FC" stroke-width="4"/>
<path d="M158 232C158 231.448 158.448 231 159 231H168C168.552 231 169 231.448 169 232C169 232.552 168.552 233 168 233H159C158.448 233 158 232.552 158 232Z" fill="#BB86FC" stroke="#BB86FC" stroke-width="4"/>
<path d="M158 258C158 257.448 158.448 257 159 257H168C168.552 257 169 257.448 169 258C169 258.552 168.552 259 168 259H159C158.448 259 158 258.552 158 258Z" fill="#BB86FC" stroke="#BB86FC" stroke-width="4"/>
<path d="M158 284C158 283.448 158.448 283 159 283H168C168.552 283 169 283.448 169 284C169 284.552 168.552 285 168 285H159C158.448 285 158 284.552 158 284Z" fill="#BB86FC" stroke="#BB86FC" stroke-width="4"/>
<path d="M158 310C158 309.448 158.448 309 159 309H168C168.552 309 169 309.448 169 310C169 310.552 168.552 311 168 311H159C158.448 311 158 310.552 158 310Z" fill="#BB86FC" stroke="#BB86FC" stroke-width="4"/>
<path d="M158 336C158 335.448 158.448 335 159 335H168C168.552 335 169 335.448 169 336C169 336.552 168.552 337 168 337H159C158.448 337 158 336.552 158 336Z" fill="#BB86FC" stroke="#BB86FC" stroke-width="4"/>
<path d="M158 362C158 361.448 158.448 361 159 361H168C168.552 361 169 361.448 169 362C169 362.552 168.552 363 168 363H159C158.448 363 158 362.552 158 362Z" fill="#BB86FC" stroke="#BB86FC" stroke-width="4"/>
<path d="M158 388C158 387.448 158.448 387 159 387H168C168.552 387 169 387.448 169 388C169 388.552 168.552 389 168 389H159C158.448 389 158 388.552 158 388Z" fill="#BB86FC" stroke="#BB86FC" stroke-width="4"/>
<path d="M158 414C158 413.448 158.448 413 159 413H168C168.552 413 169 413.448 169 414C169 414.552 168.552 415 168 415H159C158.448 415 158 414.552 158 414Z" fill="#BB86FC" stroke="#BB86FC" stroke-width="4"/>
<path d="M199 206C199 205.448 199.448 205 200 205H244C244.552 205 245 205.448 245 206C245 206.552 244.552 207 244 207H200C199.448 207 199 206.552 199 206Z" fill="#BB86FC" stroke="#BB86FC" stroke-width="4"/>
<path d="M262 206C262 205.448 262.448 205 263 205H288C288.552 205 289 205.448 289 206C289 206.552 288.552 207 288 207H263C262.448 207 262 206.552 262 206Z" fill="#BB86FC" stroke="#BB86FC" stroke-width="4"/>
<path d="M199 232C199 231.448 199.448 231 200 231H228C228.552 231 229 231.448 229 232C229 232.552 228.552 233 228 233H200C199.448 233 199 232.552 199 232Z" fill="#BB86FC" stroke="#BB86FC" stroke-width="4"/>
<path d="M199 258C199 257.448 199.448 257 200 257H228C228.552 257 229 257.448 229 258C229 258.552 228.552 259 228 259H200C199.448 259 199 258.552 199 258Z" fill="#BB86FC" stroke="#BB86FC" stroke-width="4"/>
<path d="M245 258C245 257.448 245.448 257 246 257H285C285.552 257 286 257.448 286 258C286 258.552 285.552 259 285 259H246C245.448 259 245 258.552 245 258Z" fill="#BB86FC" stroke="#BB86FC" stroke-width="4"/>
<path d="M302 258C302 257.448 302.448 257 303 257H342C342.552 257 343 257.448 343 258C343 258.552 342.552 259 342 259H303C302.448 259 302 258.552 302 258Z" fill="#BB86FC" stroke="#BB86FC" stroke-width="4"/>
<path d="M199 281C199 280.448 199.448 280 200 280H240C240.552 280 241 280.448 241 281C241 281.552 240.552 282 240 282H200C199.448 282 199 281.552 199 281Z" fill="#BB86FC" stroke="#BB86FC" stroke-width="4"/>
<path d="M256 281C256 280.448 256.448 280 257 280H297C297.552 280 298 280.448 298 281C298 281.552 297.552 282 297 282H257C256.448 282 256 281.552 256 281Z" fill="#BB86FC" stroke="#BB86FC" stroke-width="4"/>
<path d="M316 281C316 280.448 316.448 280 317 280H413C413.552 280 414 280.448 414 281C414 281.552 413.552 282 413 282H317C316.448 282 316 281.552 316 281Z" fill="#BB86FC" stroke="#BB86FC" stroke-width="4"/>
<path d="M198 310C198 309.448 198.448 309 199 309H295C295.552 309 296 309.448 296 310C296 310.552 295.552 311 295 311H199C198.448 311 198 310.552 198 310Z" fill="#BB86FC" stroke="#BB86FC" stroke-width="4"/>
<path d="M199 336C199 335.448 199.448 335 200 335H240C240.552 335 241 335.448 241 336C241 336.552 240.552 337 240 337H200C199.448 337 199 336.552 199 336Z" fill="#BB86FC" stroke="#BB86FC" stroke-width="4"/>
<path d="M312 362C312 361.448 312.448 361 313 361H353C353.552 361 354 361.448 354 362C354 362.552 353.552 363 353 363H313C312.448 363 312 362.552 312 362Z" fill="#BB86FC" stroke="#BB86FC" stroke-width="4"/>
<path d="M370 362C370 361.448 370.448 361 371 361H439C439.552 361 440 361.448 440 362C440 362.552 439.552 363 439 363H371C370.448 363 370 362.552 370 362Z" fill="#BB86FC" stroke="#BB86FC" stroke-width="4"/>
<path d="M199 362C199 361.448 199.448 361 200 361H220C220.552 361 221 361.448 221 362C221 362.552 220.552 363 220 363H200C199.448 363 199 362.552 199 362Z" fill="#BB86FC" stroke="#BB86FC" stroke-width="4"/>
<path d="M199 388C199 387.448 199.448 387 200 387H231C231.552 387 232 387.448 232 388C232 388.552 231.552 389 231 389H200C199.448 389 199 388.552 199 388Z" fill="#BB86FC" stroke="#BB86FC" stroke-width="4"/>
<path d="M199 414C199 413.448 199.448 413 200 413H218C218.552 413 219 413.448 219 414C219 414.552 218.552 415 218 415H200C199.448 415 199 414.552 199 414Z" fill="#BB86FC" stroke="#BB86FC" stroke-width="4"/>
<path d="M235 414C235 413.448 235.448 413 236 413H307C307.552 413 308 413.448 308 414C308 414.552 307.552 415 307 415H236C235.448 415 235 414.552 235 414Z" fill="#BB86FC" stroke="#BB86FC" stroke-width="4"/>
<path d="M324 414C324 413.448 324.448 413 325 413H341C341.552 413 342 413.448 342 414C342 414.552 341.552 415 341 415H325C324.448 415 324 414.552 324 414Z" fill="#BB86FC" stroke="#BB86FC" stroke-width="4"/>
<path d="M358 414C358 413.448 358.448 413 359 413H428C428.552 413 429 413.448 429 414C429 414.552 428.552 415 428 415H359C358.448 415 358 414.552 358 414Z" fill="#BB86FC" stroke="#BB86FC" stroke-width="4"/>
<path d="M445 414C445 413.448 445.448 413 446 413H459C459.552 413 460 413.448 460 414C460 414.552 459.552 415 459 415H446C445.448 415 445 414.552 445 414Z" fill="#BB86FC" stroke="#BB86FC" stroke-width="4"/>
<path d="M248 388C248 387.448 248.448 387 249 387H263C263.552 387 264 387.448 264 388C264 388.552 263.552 389 263 389H249C248.448 389 248 388.552 248 388Z" fill="#BB86FC" stroke="#BB86FC" stroke-width="4"/>
<path d="M280 388C280 387.448 280.448 387 281 387H328C328.552 387 329 387.448 329 388C329 388.552 328.552 389 328 389H281C280.448 389 280 388.552 280 388Z" fill="#BB86FC" stroke="#BB86FC" stroke-width="4"/>
<path d="M345 388C345 387.448 345.448 387 346 387H360C360.552 387 361 387.448 361 388C361 388.552 360.552 389 360 389H346C345.448 389 345 388.552 345 388Z" fill="#BB86FC" stroke="#BB86FC" stroke-width="4"/>
<path d="M377 388C377 387.448 377.448 387 378 387H409C409.552 387 410 387.448 410 388C410 388.552 409.552 389 409 389H378C377.448 389 377 388.552 377 388Z" fill="#BB86FC" stroke="#BB86FC" stroke-width="4"/>
<path d="M236 362C236 361.448 236.448 361 237 361H257C257.552 361 258 361.448 258 362C258 362.552 257.552 363 257 363H237C236.448 363 236 362.552 236 362Z" fill="#BB86FC" stroke="#BB86FC" stroke-width="4"/>
<path d="M274 362C274 361.448 274.448 361 275 361H295C295.552 361 296 361.448 296 362C296 362.552 295.552 363 295 363H275C274.448 363 274 362.552 274 362Z" fill="#BB86FC" stroke="#BB86FC" stroke-width="4"/>
<path d="M257 336C257 335.448 257.448 335 258 335H298C298.552 335 299 335.448 299 336C299 336.552 298.552 337 298 337H258C257.448 337 257 336.552 257 336Z" fill="#BB86FC" stroke="#BB86FC" stroke-width="4"/>
<path d="M315 336C315 335.448 315.448 335 316 335H356C356.552 335 357 335.448 357 336C357 336.552 356.552 337 356 337H316C315.448 337 315 336.552 315 336Z" fill="#BB86FC" stroke="#BB86FC" stroke-width="4"/>
<path d="M312 310C312 309.448 312.448 309 313 309H352C352.552 309 353 309.448 353 310C353 310.552 352.552 311 352 311H313C312.448 311 312 310.552 312 310Z" fill="#BB86FC" stroke="#BB86FC" stroke-width="4"/>
<path d="M369 310C369 309.448 369.448 309 370 309H409C409.552 309 410 309.448 410 310C410 310.552 409.552 311 409 311H370C369.448 311 369 310.552 369 310Z" fill="#BB86FC" stroke="#BB86FC" stroke-width="4"/>
<path d="M245 232C245 231.448 245.448 231 246 231H261C261.552 231 262 231.448 262 232C262 232.552 261.552 233 261 233H246C245.448 233 245 232.552 245 232Z" fill="#BB86FC" stroke="#BB86FC" stroke-width="4"/>
<path d="M283 232C283 231.448 283.448 231 284 231H322C322.552 231 323 231.448 323 232C323 232.552 322.552 233 322 233H284C283.448 233 283 232.552 283 232Z" fill="#BB86FC" stroke="#BB86FC" stroke-width="4"/>
<path d="M344 232C344 231.448 344.448 231 345 231H448C448.552 231 449 231.448 449 232C449 232.552 448.552 233 448 233H345C344.448 233 344 232.552 344 232Z" fill="#BB86FC" stroke="#BB86FC" stroke-width="4"/>
<path d="M306 206C306 205.448 306.448 205 307 205H351C351.552 205 352 205.448 352 206C352 206.552 351.552 207 351 207H307C306.448 207 306 206.552 306 206Z" fill="#BB86FC" stroke="#BB86FC" stroke-width="4"/>
<path d="M369 206C369 205.448 369.448 205 370 205H393C393.552 205 394 205.448 394 206C394 206.552 393.552 207 393 207H370C369.448 207 369 206.552 369 206Z" fill="#BB86FC" stroke="#BB86FC" stroke-width="4"/>
<path d="M411 206C411 205.448 411.448 205 412 205H473C473.552 205 474 205.448 474 206C474 206.552 473.552 207 473 207H412C411.448 207 411 206.552 411 206Z" fill="#BB86FC" stroke="#BB86FC" stroke-width="4"/>
</svg>
