<svg width="1465" height="662" fill="none" xmlns="http://www.w3.org/2000/svg"><path d="M62.5 170a7.5 7.5 0 017.5-7.5h385a7.5 7.5 0 017.5 7.5v303.526a7.5 7.5 0 01-7.5 7.5H70a7.5 7.5 0 01-7.5-7.5V170zM211.766 541.5l6.072-60h88.179l10.03 60H211.766z" stroke="#BB86FC" stroke-width="5"/><path d="M176.697 542.987a1.5 1.5 0 011.5-1.5h171.262a1.5 1.5 0 011.5 1.5V568a1.5 1.5 0 01-1.5 1.5H178.197a1.5 1.5 0 01-1.5-1.5v-25.013zM77.107 179.846a1.5 1.5 0 011.5-1.5h367.786a1.5 1.5 0 011.5 1.5V439.91a1.5 1.5 0 01-1.5 1.5H78.607a1.5 1.5 0 01-1.5-1.5V179.846z" stroke="#BB86FC" stroke-width="5"/><path d="M107 205a1 1 0 011-1h9a1 1 0 010 2h-9a1 1 0 01-1-1zM107 231a1 1 0 011-1h9a1 1 0 010 2h-9a1 1 0 01-1-1zM107 257a1 1 0 011-1h9a1 1 0 010 2h-9a1 1 0 01-1-1zM107 283a1 1 0 011-1h9a1 1 0 010 2h-9a1 1 0 01-1-1zM107 309a1 1 0 011-1h9a1 1 0 010 2h-9a1 1 0 01-1-1zM107 335a1 1 0 011-1h9a1 1 0 010 2h-9a1 1 0 01-1-1zM107 361a1 1 0 011-1h9a1 1 0 010 2h-9a1 1 0 01-1-1zM107 387a1 1 0 011-1h9a1 1 0 010 2h-9a1 1 0 01-1-1zM107 413a1 1 0 011-1h9a1 1 0 010 2h-9a1 1 0 01-1-1zM148 205a1 1 0 011-1h44a1 1 0 010 2h-44a1 1 0 01-1-1zM211 205a1 1 0 011-1h25a1 1 0 010 2h-25a1 1 0 01-1-1zM148 231a1 1 0 011-1h28a1 1 0 010 2h-28a1 1 0 01-1-1zM148 257a1 1 0 011-1h28a1 1 0 010 2h-28a1 1 0 01-1-1zM194 257a1 1 0 011-1h39a1 1 0 010 2h-39a1 1 0 01-1-1zM251 257a1 1 0 011-1h39a1 1 0 010 2h-39a1 1 0 01-1-1zM148 280a1 1 0 011-1h40a1 1 0 010 2h-40a1 1 0 01-1-1zM205 280a1 1 0 011-1h40a1 1 0 010 2h-40a1 1 0 01-1-1zM265 280a1 1 0 011-1h96a1 1 0 010 2h-96a1 1 0 01-1-1zM147 309a1 1 0 011-1h96a1 1 0 010 2h-96a1 1 0 01-1-1zM148 335a1 1 0 011-1h40a1 1 0 010 2h-40a1 1 0 01-1-1zM261 361a1 1 0 011-1h40a1 1 0 010 2h-40a1 1 0 01-1-1zM319 361a1 1 0 011-1h68a1 1 0 010 2h-68a1 1 0 01-1-1zM148 361a1 1 0 011-1h20a1 1 0 010 2h-20a1 1 0 01-1-1zM148 387a1 1 0 011-1h31a1 1 0 010 2h-31a1 1 0 01-1-1zM148 413a1 1 0 011-1h18a1 1 0 010 2h-18a1 1 0 01-1-1zM184 413a1 1 0 011-1h71a1 1 0 010 2h-71a1 1 0 01-1-1zM273 413a1 1 0 011-1h16a1 1 0 010 2h-16a1 1 0 01-1-1zM307 413a1 1 0 011-1h69a1 1 0 010 2h-69a1 1 0 01-1-1zM394 413a1 1 0 011-1h13a1 1 0 010 2h-13a1 1 0 01-1-1zM197 387a1 1 0 011-1h14a1 1 0 010 2h-14a1 1 0 01-1-1zM229 387a1 1 0 011-1h47a1 1 0 010 2h-47a1 1 0 01-1-1zM294 387a1 1 0 011-1h14a1 1 0 010 2h-14a1 1 0 01-1-1zM326 387a1 1 0 011-1h31a1 1 0 010 2h-31a1 1 0 01-1-1zM185 361a1 1 0 011-1h20a1 1 0 010 2h-20a1 1 0 01-1-1zM223 361a1 1 0 011-1h20a1 1 0 010 2h-20a1 1 0 01-1-1zM206 335a1 1 0 011-1h40a1 1 0 010 2h-40a1 1 0 01-1-1zM264 335a1 1 0 011-1h40a1 1 0 010 2h-40a1 1 0 01-1-1zM261 309a1 1 0 011-1h39a1 1 0 010 2h-39a1 1 0 01-1-1zM318 309a1 1 0 011-1h39a1 1 0 010 2h-39a1 1 0 01-1-1zM194 231a1 1 0 011-1h15a1 1 0 010 2h-15a1 1 0 01-1-1zM232 231a1 1 0 011-1h38a1 1 0 010 2h-38a1 1 0 01-1-1zM293 231a1 1 0 011-1h103a1 1 0 010 2H294a1 1 0 01-1-1zM255 205a1 1 0 011-1h44a1 1 0 010 2h-44a1 1 0 01-1-1zM318 205a1 1 0 011-1h23a1 1 0 010 2h-23a1 1 0 01-1-1zM360 205a1 1 0 011-1h61a1 1 0 010 2h-61a1 1 0 01-1-1z" fill="#BB86FC" stroke="#BB86FC" stroke-width="4"/><path fill="#BB86FC" stroke="#AA65FF" stroke-width="4" d="M820 525h106v45H820z"/><path d="M4.5 576a1.5 1.5 0 011.5-1.5h1242c.83 0 1.5.672 1.5 1.5v82a1.5 1.5 0 01-1.5 1.5H6a1.5 1.5 0 01-1.5-1.5v-82z" fill="#AA65FF" stroke="#AA65FF" stroke-width="5"/><path fill="#BB86FC" stroke="#AA65FF" stroke-width="4" d="M778.995 367.605l31.333-17.727 77.803 137.516-31.333 17.727z"/><circle cx="873.449" cy="497.998" r="23" transform="rotate(-29.5 873.449 497.998)" fill="#BB86FC" stroke="#AA65FF" stroke-width="4"/><path fill="#BB86FC" stroke="#AA65FF" stroke-width="4" d="M643.28 414.488l-9.014-34.853 152.968-39.56 9.013 34.853z"/><circle cx="793.677" cy="357" r="23" transform="rotate(-104.5 793.677 357)" fill="#BB86FC" stroke="#AA65FF" stroke-width="4"/><path fill="#BB86FC" stroke="#AA65FF" stroke-width="4" d="M654.549 430.718l-35.999-.314.27-30.999 36 .314z"/><path d="M612.42 445.351l-.419 47.998-15-.131.515-58.998 77.997.681-.515 58.998-13.999-.123.419-47.998.017-2-2-.017-44.998-.393-2-.017-.017 2z" fill="#AA65FF" stroke="#AA65FF" stroke-width="4"/><circle cx="636.838" cy="397.562" r="23" transform="rotate(-179.5 636.838 397.562)" fill="#BB86FC" stroke="#AA65FF" stroke-width="4"/><circle cx="649.5" cy="549.5" r="20.5" fill="#73C9E4" stroke="#41A1C1" stroke-width="4"/></svg>