<svg width="1331" height="658" viewBox="0 0 1331 658" fill="none" xmlns="http://www.w3.org/2000/svg">
<path d="M759.746 489.874L800.321 557.95C800.887 558.899 800.603 560.169 799.687 560.787L787.998 568.677C787.082 569.295 785.881 569.027 785.316 568.078L744.741 500.002C744.175 499.053 744.459 497.783 745.374 497.165L757.064 489.275C757.98 488.657 759.18 488.925 759.746 489.874Z" fill="#BB86FC" stroke="#AA65FF" stroke-width="4"/>
<path d="M588.439 481.276L602.826 561.405C603.021 562.492 602.302 563.554 601.22 563.777L587.956 566.51C586.874 566.733 585.839 566.032 585.644 564.945L571.257 484.816C571.062 483.729 571.781 482.667 572.863 482.444L586.127 479.711C587.209 479.489 588.244 480.189 588.439 481.276Z" fill="#BB86FC" stroke="#AA65FF" stroke-width="4"/>
<path d="M603.032 401.706L797.274 406.534C798.378 406.561 799.251 407.479 799.224 408.583L798.858 423.295C798.831 424.399 797.913 425.272 796.809 425.244L602.567 420.417C601.463 420.389 600.59 419.472 600.617 418.368L600.983 403.656C601.011 402.552 601.928 401.679 603.032 401.706Z" fill="#BB86FC" stroke="#AA65FF" stroke-width="4"/>
<path d="M778.658 403.794L820.615 471.027C821.2 471.965 820.942 473.24 820.04 473.877L808.513 482.004C807.611 482.641 806.405 482.397 805.82 481.46L763.863 414.227C763.278 413.29 763.536 412.014 764.438 411.377L775.965 403.25C776.867 402.613 778.073 402.857 778.658 403.794Z" fill="#BB86FC" stroke="#AA65FF" stroke-width="4"/>
<path d="M819.354 470.107L757.918 518.406C757.049 519.089 755.828 518.912 755.19 518.01L746.883 506.273C746.245 505.372 746.432 504.087 747.3 503.405L808.737 455.105C809.605 454.422 810.826 454.599 811.464 455.501L819.771 467.238C820.409 468.14 820.223 469.424 819.354 470.107Z" fill="#BB86FC" stroke="#AA65FF" stroke-width="4"/>
<path d="M784.339 416.171C784.199 421.776 779.824 426.018 774.792 425.893C769.761 425.768 765.602 421.313 765.741 415.709C765.88 410.105 770.256 405.862 775.287 405.987C780.318 406.112 784.478 410.567 784.339 416.171Z" fill="#BB86FC" stroke="#AA65FF" stroke-width="4"/>
<path d="M634.817 401.823L650.837 481.641C651.055 482.724 650.358 483.801 649.281 484.045L636.075 487.049C634.998 487.293 633.949 486.614 633.731 485.531L617.711 405.713C617.494 404.63 618.191 403.554 619.268 403.309L632.473 400.306C633.55 400.061 634.6 400.74 634.817 401.823Z" fill="#BB86FC" stroke="#AA65FF" stroke-width="4"/>
<path d="M573.348 489.518L646.772 463.26C647.812 462.888 648.916 463.444 649.237 464.5L653.434 478.298C653.755 479.355 653.172 480.513 652.132 480.885L578.708 507.142C577.668 507.514 576.565 506.959 576.243 505.902L572.047 492.105C571.726 491.048 572.308 489.89 573.348 489.518Z" fill="#BB86FC" stroke="#AA65FF" stroke-width="4"/>
<path d="M637.461 412.521C637.321 418.125 632.945 422.368 627.914 422.243C622.883 422.118 618.723 417.663 618.863 412.059C619.002 406.454 623.378 402.212 628.409 402.337C633.44 402.462 637.6 406.916 637.461 412.521Z" fill="#BB86FC" stroke="#AA65FF" stroke-width="4"/>
</svg>
