<svg width="1465" height="662" fill="none" xmlns="http://www.w3.org/2000/svg"><path d="M62.5 170a7.5 7.5 0 017.5-7.5h385a7.5 7.5 0 017.5 7.5v303.526a7.5 7.5 0 01-7.5 7.5H70a7.5 7.5 0 01-7.5-7.5V170zM211.766 541.5l6.072-60h88.179l10.03 60H211.766z" stroke="#BB86FC" stroke-width="5"/><path d="M176.697 542.987a1.5 1.5 0 011.5-1.5h171.262a1.5 1.5 0 011.5 1.5V568a1.5 1.5 0 01-1.5 1.5H178.197a1.5 1.5 0 01-1.5-1.5v-25.013zM77.107 179.846a1.5 1.5 0 011.5-1.5h367.786a1.5 1.5 0 011.5 1.5V439.91a1.5 1.5 0 01-1.5 1.5H78.607a1.5 1.5 0 01-1.5-1.5V179.846z" stroke="#BB86FC" stroke-width="5"/><path d="M107 205a1 1 0 011-1h9a1 1 0 010 2h-9a1 1 0 01-1-1zM107 231a1 1 0 011-1h9a1 1 0 010 2h-9a1 1 0 01-1-1zM107 257a1 1 0 011-1h9a1 1 0 010 2h-9a1 1 0 01-1-1zM107 283a1 1 0 011-1h9a1 1 0 010 2h-9a1 1 0 01-1-1zM107 309a1 1 0 011-1h9a1 1 0 010 2h-9a1 1 0 01-1-1zM107 335a1 1 0 011-1h9a1 1 0 010 2h-9a1 1 0 01-1-1zM107 361a1 1 0 011-1h9a1 1 0 010 2h-9a1 1 0 01-1-1zM107 387a1 1 0 011-1h9a1 1 0 010 2h-9a1 1 0 01-1-1zM107 413a1 1 0 011-1h9a1 1 0 010 2h-9a1 1 0 01-1-1zM148 205a1 1 0 011-1h44a1 1 0 010 2h-44a1 1 0 01-1-1zM211 205a1 1 0 011-1h25a1 1 0 010 2h-25a1 1 0 01-1-1zM148 231a1 1 0 011-1h28a1 1 0 010 2h-28a1 1 0 01-1-1zM148 257a1 1 0 011-1h28a1 1 0 010 2h-28a1 1 0 01-1-1zM194 257a1 1 0 011-1h39a1 1 0 010 2h-39a1 1 0 01-1-1zM251 257a1 1 0 011-1h39a1 1 0 010 2h-39a1 1 0 01-1-1zM148 280a1 1 0 011-1h40a1 1 0 010 2h-40a1 1 0 01-1-1zM205 280a1 1 0 011-1h40a1 1 0 010 2h-40a1 1 0 01-1-1zM265 280a1 1 0 011-1h96a1 1 0 010 2h-96a1 1 0 01-1-1zM147 309a1 1 0 011-1h96a1 1 0 010 2h-96a1 1 0 01-1-1zM148 335a1 1 0 011-1h40a1 1 0 010 2h-40a1 1 0 01-1-1zM261 361a1 1 0 011-1h40a1 1 0 010 2h-40a1 1 0 01-1-1zM319 361a1 1 0 011-1h68a1 1 0 010 2h-68a1 1 0 01-1-1zM148 361a1 1 0 011-1h20a1 1 0 010 2h-20a1 1 0 01-1-1zM148 387a1 1 0 011-1h31a1 1 0 010 2h-31a1 1 0 01-1-1zM148 413a1 1 0 011-1h18a1 1 0 010 2h-18a1 1 0 01-1-1zM184 413a1 1 0 011-1h71a1 1 0 010 2h-71a1 1 0 01-1-1zM273 413a1 1 0 011-1h16a1 1 0 010 2h-16a1 1 0 01-1-1zM307 413a1 1 0 011-1h69a1 1 0 010 2h-69a1 1 0 01-1-1zM394 413a1 1 0 011-1h13a1 1 0 010 2h-13a1 1 0 01-1-1zM197 387a1 1 0 011-1h14a1 1 0 010 2h-14a1 1 0 01-1-1zM229 387a1 1 0 011-1h47a1 1 0 010 2h-47a1 1 0 01-1-1zM294 387a1 1 0 011-1h14a1 1 0 010 2h-14a1 1 0 01-1-1zM326 387a1 1 0 011-1h31a1 1 0 010 2h-31a1 1 0 01-1-1zM185 361a1 1 0 011-1h20a1 1 0 010 2h-20a1 1 0 01-1-1zM223 361a1 1 0 011-1h20a1 1 0 010 2h-20a1 1 0 01-1-1zM206 335a1 1 0 011-1h40a1 1 0 010 2h-40a1 1 0 01-1-1zM264 335a1 1 0 011-1h40a1 1 0 010 2h-40a1 1 0 01-1-1zM261 309a1 1 0 011-1h39a1 1 0 010 2h-39a1 1 0 01-1-1zM318 309a1 1 0 011-1h39a1 1 0 010 2h-39a1 1 0 01-1-1zM194 231a1 1 0 011-1h15a1 1 0 010 2h-15a1 1 0 01-1-1zM232 231a1 1 0 011-1h38a1 1 0 010 2h-38a1 1 0 01-1-1zM293 231a1 1 0 011-1h103a1 1 0 010 2H294a1 1 0 01-1-1zM255 205a1 1 0 011-1h44a1 1 0 010 2h-44a1 1 0 01-1-1zM318 205a1 1 0 011-1h23a1 1 0 010 2h-23a1 1 0 01-1-1zM360 205a1 1 0 011-1h61a1 1 0 010 2h-61a1 1 0 01-1-1z" fill="#BB86FC" stroke="#BB86FC" stroke-width="4"/><path fill="#BB86FC" stroke="#AA65FF" stroke-width="4" d="M820 525h106v45H820z"/><path d="M4.5 576a1.5 1.5 0 011.5-1.5h1242c.83 0 1.5.672 1.5 1.5v82a1.5 1.5 0 01-1.5 1.5H6a1.5 1.5 0 01-1.5-1.5v-82z" fill="#AA65FF" stroke="#AA65FF" stroke-width="5"/><path fill="#BB86FC" stroke="#AA65FF" stroke-width="4" d="M762.781 381.05l28.75-21.665 95.088 126.184-28.751 21.665z"/><circle cx="873.446" cy="497.999" r="23" transform="rotate(-37 873.446 497.999)" fill="#BB86FC" stroke="#AA65FF" stroke-width="4"/><path fill="#BB86FC" stroke="#AA65FF" stroke-width="4" d="M637.823 451.351l-14.929-32.759 143.774-65.521 14.929 32.758z"/><circle cx="775.952" cy="368.62" r="23" transform="rotate(-114.5 775.952 368.62)" fill="#BB86FC" stroke="#AA65FF" stroke-width="4"/><path fill="#BB86FC" stroke="#AA65FF" stroke-width="4" d="M647.397 468.318l-35.988.942-.811-30.989 35.988-.942z"/><path d="M605.804 484.412l1.256 47.984-14.995.392-1.544-58.979 77.973-2.042 1.545 58.98-13.995.366-1.257-47.983-.052-2-2 .053-44.984 1.178-2 .052.053 1.999z" fill="#AA65FF" stroke="#AA65FF" stroke-width="4"/><circle cx="628.539" cy="435.8" r="23" transform="rotate(178.5 628.539 435.8)" fill="#BB86FC" stroke="#AA65FF" stroke-width="4"/><circle cx="630.76" cy="519.19" r="20.5" transform="rotate(13.5 630.76 519.19)" fill="#73C9E4" stroke="#41A1C1" stroke-width="4"/></svg>