<svg width="1331" height="658" viewBox="0 0 1331 658" fill="none" xmlns="http://www.w3.org/2000/svg">
<path d="M759.746 489.875L800.322 557.951C800.887 558.9 800.603 560.17 799.688 560.788L787.998 568.679C787.082 569.297 785.882 569.029 785.316 568.08L744.741 500.004C744.175 499.055 744.459 497.785 745.375 497.167L757.065 489.276C757.98 488.658 759.181 488.927 759.746 489.875Z" fill="#BB86FC" stroke="#AA65FF" stroke-width="4"/>
<path d="M588.439 481.278L602.826 561.407C603.021 562.494 602.303 563.556 601.221 563.779L587.956 566.511C586.875 566.734 585.839 566.034 585.644 564.946L571.257 484.818C571.062 483.731 571.781 482.669 572.863 482.446L586.127 479.713C587.209 479.49 588.244 480.191 588.439 481.278Z" fill="#BB86FC" stroke="#AA65FF" stroke-width="4"/>
<path d="M601.084 426.819L795.055 415.475C796.157 415.411 797.104 416.252 797.168 417.355L798.027 432.046C798.092 433.149 797.25 434.095 796.147 434.16L602.177 445.504C601.074 445.568 600.128 444.726 600.064 443.624L599.204 428.933C599.14 427.83 599.981 426.884 601.084 426.819Z" fill="#BB86FC" stroke="#AA65FF" stroke-width="4"/>
<path d="M775.43 416.455L825.153 478.167C825.846 479.027 825.743 480.325 824.924 481.065L814.456 490.517C813.636 491.257 812.41 491.16 811.717 490.3L761.994 428.588C761.301 427.728 761.404 426.43 762.224 425.69L772.691 416.238C773.511 415.498 774.737 415.595 775.43 416.455Z" fill="#BB86FC" stroke="#AA65FF" stroke-width="4"/>
<path d="M823.266 474.875L759.385 519.892C758.482 520.529 757.271 520.287 756.681 519.354L749 507.198C748.41 506.264 748.664 504.991 749.567 504.355L813.448 459.338C814.351 458.702 815.561 458.943 816.151 459.877L823.832 472.032C824.422 472.966 824.168 474.239 823.266 474.875Z" fill="#BB86FC" stroke="#AA65FF" stroke-width="4"/>
<path d="M782.966 426.155C783.293 431.752 779.285 436.343 774.261 436.637C769.237 436.931 764.721 432.838 764.394 427.241C764.066 421.645 768.074 417.053 773.098 416.759C778.123 416.466 782.638 420.559 782.966 426.155Z" fill="#BB86FC" stroke="#AA65FF" stroke-width="4"/>
<path d="M632.769 424.292L655.372 502.501C655.678 503.562 655.073 504.693 654.02 505.027L641.11 509.118C640.057 509.451 638.955 508.862 638.648 507.801L616.045 429.591C615.739 428.53 616.344 427.4 617.397 427.066L630.307 422.975C631.36 422.641 632.462 423.231 632.769 424.292Z" fill="#BB86FC" stroke="#AA65FF" stroke-width="4"/>
<path d="M575.727 484.139L653.652 486.991C654.756 487.032 655.575 487.957 655.482 489.057L654.26 503.427C654.167 504.528 653.196 505.387 652.092 505.347L574.167 502.494C573.063 502.454 572.244 501.529 572.338 500.428L573.559 486.059C573.652 484.958 574.623 484.099 575.727 484.139Z" fill="#BB86FC" stroke="#AA65FF" stroke-width="4"/>
<path d="M636.293 434.733C636.62 440.33 632.612 444.921 627.588 445.215C622.564 445.509 618.048 441.416 617.721 435.819C617.394 430.223 621.401 425.631 626.425 425.337C631.45 425.043 635.965 429.137 636.293 434.733Z" fill="#BB86FC" stroke="#AA65FF" stroke-width="4"/>
</svg>
