<svg width="1331" height="658" viewBox="0 0 1331 658" fill="none" xmlns="http://www.w3.org/2000/svg">
<path d="M759.742 489.873L800.317 557.949C800.883 558.898 800.599 560.168 799.684 560.786L787.994 568.676C787.078 569.294 785.878 569.026 785.312 568.077L744.737 500.001C744.171 499.052 744.455 497.782 745.371 497.164L757.06 489.274C757.976 488.656 759.177 488.924 759.742 489.873Z" fill="#BB86FC" stroke="#AA65FF" stroke-width="4"/>
<path d="M588.435 481.276L602.822 561.404C603.017 562.491 602.298 563.553 601.217 563.776L587.952 566.509C586.871 566.732 585.835 566.031 585.64 564.944L571.253 484.816C571.058 483.729 571.777 482.666 572.859 482.444L586.123 479.711C587.205 479.488 588.24 480.189 588.435 481.276Z" fill="#BB86FC" stroke="#AA65FF" stroke-width="4"/>
<path d="M604.614 412.736L798.909 411.061C800.014 411.052 800.917 411.939 800.926 413.044L801.053 427.76C801.063 428.864 800.175 429.767 799.07 429.777L604.776 431.452C603.671 431.462 602.768 430.574 602.758 429.469L602.632 414.754C602.622 413.649 603.51 412.746 604.614 412.736Z" fill="#BB86FC" stroke="#AA65FF" stroke-width="4"/>
<path d="M780.212 408.946L824.395 474.738C825.011 475.655 824.796 476.938 823.915 477.605L812.667 486.113C811.786 486.78 810.573 486.576 809.957 485.66L765.774 419.868C765.158 418.951 765.373 417.667 766.254 417.001L777.502 408.492C778.383 407.826 779.596 408.029 780.212 408.946Z" fill="#BB86FC" stroke="#AA65FF" stroke-width="4"/>
<path d="M823.91 476.753L758.699 519.821C757.777 520.43 756.575 520.152 756.013 519.201L748.703 506.819C748.141 505.868 748.433 504.604 749.355 503.995L814.565 460.927C815.487 460.318 816.69 460.595 817.251 461.547L824.562 473.929C825.123 474.88 824.831 476.144 823.91 476.753Z" fill="#BB86FC" stroke="#AA65FF" stroke-width="4"/>
<path d="M786.303 421.126C786.352 426.732 782.12 431.119 777.088 431.162C772.055 431.205 767.749 426.892 767.7 421.287C767.652 415.681 771.884 411.294 776.916 411.251C781.949 411.207 786.255 415.52 786.303 421.126Z" fill="#BB86FC" stroke="#AA65FF" stroke-width="4"/>
<path d="M636.385 411.79L655.067 491.027C655.321 492.102 654.66 493.201 653.592 493.482L640.494 496.925C639.426 497.206 638.355 496.562 638.101 495.487L619.419 416.25C619.165 415.175 619.826 414.076 620.894 413.795L633.992 410.352C635.06 410.071 636.132 410.715 636.385 411.79Z" fill="#BB86FC" stroke="#AA65FF" stroke-width="4"/>
<path d="M573.165 483.652L650.207 471.606C651.298 471.436 652.279 472.188 652.396 473.286L653.935 487.625C654.053 488.723 653.264 489.752 652.172 489.923L575.131 501.969C574.039 502.139 573.059 501.387 572.941 500.289L571.403 485.95C571.285 484.851 572.074 483.823 573.165 483.652Z" fill="#BB86FC" stroke="#AA65FF" stroke-width="4"/>
<path d="M639.385 422.393C639.434 427.999 635.202 432.385 630.17 432.429C625.137 432.472 620.831 428.159 620.782 422.553C620.734 416.947 624.965 412.561 629.998 412.517C635.03 412.474 639.337 416.787 639.385 422.393Z" fill="#BB86FC" stroke="#AA65FF" stroke-width="4"/>
</svg>
